<?xml version="1.0" encoding="iso-8859-1"?>
<!-- Uploaded to: SVG Repo, www.svgrepo.com, Generator: SVG Repo Mixer Tools -->
<!DOCTYPE svg PUBLIC "-//W3C//DTD SVG 1.1//EN" "http://www.w3.org/Graphics/SVG/1.1/DTD/svg11.dtd">
<svg fill="#E6B9DE" height="800px" width="800px" version="1.1" id="Capa_1" xmlns="http://www.w3.org/2000/svg" xmlns:xlink="http://www.w3.org/1999/xlink" 
	 viewBox="0 0 486.052 486.052" xml:space="preserve">
<g>
	<path d="M405.353,419.458l-29.542-96.314c-6.637-21.629-26.613-36.393-49.232-36.393h-2.448
		c-1.142,43.849-36.981,79.215-81.104,79.215c-44.123,0-79.963-35.366-81.104-79.215h-2.449c-22.621,0-42.596,14.764-49.232,36.393
		L80.7,419.458c-4.787,15.614-1.882,32.572,7.825,45.714c9.708,13.132,25.077,20.88,41.407,20.88h226.188
		c16.329,0,31.699-7.748,41.406-20.88C407.235,452.03,410.139,435.072,405.353,419.458z M243.026,465.038
		c-7.646,0-13.85-6.196-13.85-13.85c0-7.645,6.203-13.85,13.85-13.85c7.645,0,13.85,6.205,13.85,13.85
		C256.875,458.842,250.67,465.038,243.026,465.038z M243.026,419.191c-7.646,0-13.85-6.196-13.85-13.85
		c0-7.645,6.203-13.85,13.85-13.85c7.645,0,13.85,6.205,13.85,13.85C256.875,412.994,250.67,419.191,243.026,419.191z"/>
	<path d="M126.947,189.641c0.079,0,0.505,0,0.584,0c0.607,0,1.495-0.008,2.622-0.048v46.014c0,14.369,11.684,26.053,26.053,26.053
		h50.996l-5.189,25.092h-9.525c1.125,26.999,23.272,48.65,50.539,48.65c27.266,0,49.413-21.651,50.539-48.65h-9.527l-5.189-25.092
		h50.996c14.37,0,26.055-11.684,26.055-26.053V172.87c3.116,0.677,6.377,0.37,9.093-1.378c3.165-2.031,5.213-5.416,5.527-9.165
		c0.283-3.37,6.424-82.938-36.54-129.667C312.422,9.221,283.242-1.763,245.576,0.23c-57.256,3.031-119.274,19.424-130.455,176.46
		c-0.236,3.306,0.898,6.566,3.135,9.014C120.491,188.152,123.633,189.57,126.947,189.641z M156.205,237.472
		c-1.032,0-1.865-0.835-1.865-1.865v-49.059c1.896-0.386,3.936-0.882,5.967-1.371c6.449,21.235,17.559,39.376,31.737,52.296H156.205
		z M331.712,235.607c0,1.03-0.835,1.865-1.867,1.865h-35.847c14.486-13.196,25.746-31.848,32.123-53.673
		c1.913-0.496,3.78-1.204,5.591-2.173V235.607z M246.852,24.385c2.41-0.126,4.74-0.188,7.031-0.188
		c26.147,0,47.082,8.338,62.231,24.777c24.936,27.062,29.863,70.121,30.532,93.985c-47.247-24.675-59.16-69.42-59.679-71.467
		c-1.222-4.937-5.394-8.582-10.449-9.126c-5.047-0.551-9.912,2.118-12.148,6.693c-36.595,74.553-97.442,91.457-123.943,95.275
		C153.481,29.338,207.248,26.48,246.852,24.385z"/>
</g>
</svg>